<?xml version="1.0" encoding="UTF-8"?>
<svg width="26px" height="25px" viewBox="0 0 26 25" version="1.1" xmlns="http://www.w3.org/2000/svg" xmlns:xlink="http://www.w3.org/1999/xlink">
    <!-- Generator: Sketch 42 (36781) - http://www.bohemiancoding.com/sketch -->
    <title>Shape</title>
    <desc>Created with Sketch.</desc>
    <defs></defs>
    <g id="Perfil-User" stroke="none" stroke-width="1" fill="none" fill-rule="evenodd">
        <g id="6.2-Editar_Perfil" transform="translate(-571.000000, -47.000000)" fill-rule="nonzero" fill="#FFFFFF">
            <path d="M571.526525,71.4786003 C572.228855,72.1737999 573.369695,72.1737999 574.073807,71.4786003 L583.564172,62.0666679 L592.968975,71.4714701 C593.671305,72.1755825 594.812145,72.1755825 595.514475,71.4714701 C596.216804,70.7673577 596.216804,69.6229523 595.514475,68.9188399 L586.123933,59.5265156 L595.460998,50.266101 C596.163328,49.5691189 596.163328,48.4407565 595.460998,47.745557 C594.758668,47.0485748 593.617828,47.0485748 592.915498,47.745557 L583.590911,56.9934936 L574.127284,47.5280843 C573.424954,46.8239719 572.284114,46.8239719 571.581784,47.5280843 C570.879454,48.2339792 570.879454,49.3766021 571.581784,50.0807145 L581.03115,59.5318633 L571.528307,68.9562737 C570.824195,69.6532559 570.824195,70.7834008 571.526525,71.4786003 Z" id="Shape"></path>
        </g>
    </g>
</svg>